<?xml version="1.0" encoding="UTF-8" standalone="no"?>
<!DOCTYPE svg PUBLIC "-//W3C//DTD SVG 1.1//EN" "http://www.w3.org/Graphics/SVG/1.1/DTD/svg11.dtd">
<svg width="100%" height="100%" viewBox="0 0 4320 2592" version="1.1" xmlns="http://www.w3.org/2000/svg" xmlns:xlink="http://www.w3.org/1999/xlink" xml:space="preserve" style="fill-rule:evenodd;clip-rule:evenodd;stroke-linejoin:round;stroke-miterlimit:1.41421;">
    <g transform="matrix(1,0,0,1,12.1349,-7.59986)">
        <g transform="matrix(11.6456,0,0,11.6456,-1415.68,-2908.17)">
            <rect x="126" y="253.663" width="360" height="216.001" style="fill:white;fill-rule:nonzero;"/>
        </g>
        <g transform="matrix(11.6456,0,0,11.6456,-1415.68,-2908.17)">
            <path d="M413.25,361.664L394.924,361.664L374.932,361.664L374.924,361.664L354.932,361.664L331.896,361.664L265.723,361.664C261.359,361.664 257.822,365.201 257.822,369.566C257.822,369.869 257.843,370.166 257.875,370.46C257.933,370.771 257.98,371.086 258.043,371.395C262.568,393.73 282.35,410.596 306,410.596C323.396,410.596 338.689,401.464 347.368,387.75L391.032,387.75C379.885,424.132 346.033,450.588 306,450.588C256.889,450.588 217.076,410.775 217.076,361.664L120.505,361.988L120.389,473.595L491.365,472.982L491.494,361.664L413.25,361.664Z" style="fill:rgb(0,148,202);fill-rule:nonzero;"/>
        </g>
        <g transform="matrix(11.6456,0,0,11.6456,-1415.68,-2908.17)">
            <path d="M369.782,387.75C359.476,412.855 334.775,430.588 306,430.588C267.995,430.588 237.076,399.669 237.076,361.664C237.076,323.659 267.995,292.74 306,292.74C344.005,292.74 374.924,323.659 374.924,361.664L394.924,361.664C394.924,312.553 355.111,272.74 306,272.74C256.888,272.74 217.076,312.553 217.076,361.664C217.076,410.775 256.888,450.588 306,450.588C346.033,450.588 379.885,424.132 391.032,387.75L369.808,387.75L369.782,387.75Z" style="fill:rgb(255,164,2);fill-rule:nonzero;"/>
        </g>
    </g>
</svg>
